<?xml version="1.0" encoding="UTF-8" standalone="no"?>
<svg
   height="48"
   width="48"
   version="1.1"
   id="svg4610"
   sodipodi:docname="skolka.svg"
   inkscape:version="1.2.1 (9c6d41e410, 2022-07-14)"
   xmlns:inkscape="http://www.inkscape.org/namespaces/inkscape"
   xmlns:sodipodi="http://sodipodi.sourceforge.net/DTD/sodipodi-0.dtd"
   xmlns="http://www.w3.org/2000/svg"
   xmlns:svg="http://www.w3.org/2000/svg">
  <defs
     id="defs4614">
    <filter
       inkscape:collect="always"
       style="color-interpolation-filters:sRGB"
       id="filter13381"
       x="-0.082355383"
       y="-0.082355383"
       width="1.1647108"
       height="1.1647108">
      <feGaussianBlur
         inkscape:collect="always"
         stdDeviation="1.4106884"
         id="feGaussianBlur13383" />
    </filter>
  </defs>
  <sodipodi:namedview
     id="namedview4612"
     pagecolor="#ffffff"
     bordercolor="#000000"
     borderopacity="0.25"
     inkscape:showpageshadow="2"
     inkscape:pageopacity="0.0"
     inkscape:pagecheckerboard="0"
     inkscape:deskcolor="#d1d1d1"
     showgrid="false"
     inkscape:zoom="10.028759"
     inkscape:cx="15.505408"
     inkscape:cy="42.328268"
     inkscape:window-width="1280"
     inkscape:window-height="1523"
     inkscape:window-x="20"
     inkscape:window-y="20"
     inkscape:window-maximized="0"
     inkscape:current-layer="svg4610" />
  <circle
     style="opacity:0.3052851;fill:#000000;fill-opacity:1;stroke:none;stroke-width:1.054;stroke-linecap:butt;stroke-linejoin:miter;stroke-dasharray:none;stroke-dashoffset:0;stroke-opacity:1;filter:url(#filter13381)"
     id="path1377-3"
     cx="24.003901"
     cy="23.951588"
     r="20.555136" />
  <circle
     style="fill:#fff059;fill-opacity:1;stroke:none;stroke-width:1.054;stroke-linecap:butt;stroke-linejoin:miter;stroke-dasharray:none;stroke-dashoffset:0;stroke-opacity:1"
     id="path1377"
     cx="23.945183"
     cy="23.931026"
     r="20.555136" />
  <path
     d="m 28.627642,23.021076 q -0.845434,0 -1.42389,-0.578456 -0.578455,-0.578455 -0.578455,-1.42389 0,-0.845434 0.578455,-1.42389 0.578456,-0.578455 1.42389,-0.578455 0.845435,0 1.42389,0.578455 0.578456,0.578456 0.578456,1.42389 0,0.845435 -0.578456,1.42389 -0.578455,0.578456 -1.42389,0.578456 z m -9.299781,0 q -0.845435,0 -1.42389,-0.578456 -0.578455,-0.578455 -0.578455,-1.42389 0,-0.845434 0.578455,-1.42389 0.578455,-0.578455 1.42389,-0.578455 0.845435,0 1.42389,0.578455 0.578455,0.578456 0.578455,1.42389 0,0.845435 -0.578455,1.42389 -0.578455,0.578456 -1.42389,0.578456 z M 24,32.632333 q -2.491807,0 -4.538649,-1.334897 -2.046842,-1.334897 -3.203753,-3.515228 H 31.742402 Q 30.585491,29.962539 28.538649,31.297436 26.491807,32.632333 24,32.632333 Z m 0,7.386429 q -3.292746,0 -6.20727,-1.268152 Q 14.878205,37.482458 12.697873,35.302127 10.517542,33.121795 9.2493899,30.20727 7.981238,27.292746 7.981238,24 q 0,-3.292746 1.2681519,-6.20727 Q 10.517542,14.878205 12.697873,12.697873 14.878205,10.517542 17.79273,9.2493899 20.707254,7.981238 24,7.981238 q 3.292746,0 6.20727,1.2681519 2.914525,1.2681521 5.094857,3.4484831 2.180331,2.180332 3.448483,5.094857 1.268152,2.914524 1.268152,6.20727 0,3.292746 -1.268152,6.20727 -1.268152,2.914525 -3.448483,5.094857 Q 33.121795,37.482458 30.20727,38.75061 27.292746,40.018762 24,40.018762 Z m 0,-2.669794 q 5.473077,0 9.411023,-3.893449 3.937945,-3.893449 3.937945,-9.366526 0,-5.473077 -3.8712,-9.566761 -3.871201,-4.093683 -9.566761,-4.093683 h -0.800938 q -0.311476,0 -0.800938,0.0445 -0.08899,0.355973 -0.155738,0.845435 -0.06675,0.489462 -0.06675,0.845435 0,1.112414 0.734193,1.846607 0.734193,0.734193 1.846607,0.734193 0.533959,0 0.889932,-0.06674 0.355972,-0.06674 0.667448,-0.06674 0.444966,0 0.756442,0.222482 0.311476,0.222483 0.311476,0.667449 0,0.711945 -0.667449,1.090166 -0.667448,0.37822 -1.957849,0.37822 -2.046841,0 -3.426235,-1.379393 -1.379393,-1.379393 -1.379393,-3.426235 0,-0.222483 0.02225,-0.578456 0.02225,-0.355972 0.111241,-0.578455 -4.049187,1.468387 -6.696732,4.894622 -2.647545,3.426235 -2.647545,8.009381 0,5.473077 3.937945,9.455519 Q 18.526923,37.348968 24,37.348968 Z m 0,-13.437961 z"
     id="path4608"
     style="fill:#5f5200;fill-opacity:1;stroke-width:0.889931" />
</svg>
